<svg width="24" height="24" viewBox="0 0 24 24" fill="none" xmlns="http://www.w3.org/2000/svg">
<path d="M21.1204 14.0384C20.6473 14.0384 20.2444 13.6765 20.2019 13.1965C20.1567 12.6888 20.5324 12.2407 21.0401 12.1959H21.041C21.1028 11.6901 21.5598 11.3333 22.0698 11.3924C22.5761 11.4547 22.9356 11.9153 22.8733 12.4212C22.7676 13.2801 22.0647 13.9585 21.2025 14.0347C21.1748 14.0375 21.1472 14.0384 21.1204 14.0384Z" fill="black"/>
<path d="M6.12782 15.3501C5.65429 15.3501 5.25136 14.9878 5.20936 14.5073C5.1646 13.9991 5.54075 13.5519 6.04844 13.5072L21.0405 12.1955C21.551 12.1484 21.9959 12.5268 22.0402 13.0345C22.085 13.5427 21.7088 13.9899 21.2011 14.0347L6.20905 15.3464C6.18228 15.3487 6.15459 15.3501 6.12782 15.3501Z" fill="black"/>
<path d="M21.9581 13.2316C21.9202 13.2316 21.8824 13.2293 21.8441 13.2247C21.3378 13.1624 20.9782 12.7018 21.0405 12.1959L22.1607 3.10227C22.2235 2.59643 22.6873 2.23689 23.1894 2.2992C23.6958 2.3615 24.0553 2.82212 23.993 3.32796L22.8728 12.4216C22.8156 12.8892 22.4173 13.2316 21.9581 13.2316Z" fill="black"/>
<path d="M3.66922 5.83595C3.19568 5.83595 2.79276 5.47365 2.75076 4.99319C2.70599 4.48503 3.08214 4.0378 3.58983 3.99304L22.9965 2.29504C23.5061 2.24843 23.9519 2.62643 23.9962 3.13412C24.041 3.64227 23.6648 4.0895 23.1571 4.13427L3.75045 5.83226C3.72322 5.83457 3.69599 5.83595 3.66922 5.83595Z" fill="black"/>
<path d="M3.42876 4.03227C2.97368 4.03227 2.57722 3.69534 2.51537 3.2315V3.23058C2.00584 3.23058 1.5923 2.8175 1.5923 2.3075C1.5923 1.79751 2.00584 1.38443 2.51537 1.38443C3.4366 1.38443 4.22306 2.07304 4.34537 2.98642C4.41275 3.49181 4.05783 3.95611 3.55245 4.02396C3.51045 4.0295 3.46983 4.03227 3.42876 4.03227Z" fill="black"/>
<path d="M2.51491 3.23104H0.923073C0.413537 3.23104 0 2.8175 0 2.30796C0 1.79843 0.413537 1.38489 0.923073 1.38489H2.51491C3.02445 1.38489 3.43799 1.79843 3.43799 2.30796C3.43799 2.8175 3.02491 3.23104 2.51491 3.23104Z" fill="black"/>
<path d="M4.71829 13.7038C4.26321 13.7038 3.86629 13.3668 3.80491 12.9025L2.51491 3.23104C2.44753 2.72566 2.80245 2.26135 3.30783 2.19397C3.80999 2.12566 4.27798 2.4815 4.34491 2.98689L5.63444 12.6588C5.70182 13.1642 5.3469 13.6285 4.84152 13.6959C4.79998 13.7015 4.75937 13.7038 4.71829 13.7038Z" fill="black"/>
<path d="M8.86935 22.6156C7.11828 22.6156 5.63859 21.1359 5.63859 19.3848C5.63859 17.6338 7.11828 16.1541 8.86935 16.1541C10.6204 16.1541 12.1001 17.6338 12.1001 19.3848C12.1001 21.1359 10.6204 22.6156 8.86935 22.6156ZM8.86935 18.0002C8.13181 18.0002 7.48474 18.6473 7.48474 19.3848C7.48474 20.1224 8.13181 20.7694 8.86935 20.7694C9.60689 20.7694 10.254 20.1224 10.254 19.3848C10.254 18.6473 9.60642 18.0002 8.86935 18.0002Z" fill="black"/>
<path d="M17.6385 22.6156C15.8875 22.6156 14.4078 21.1359 14.4078 19.3848C14.4078 17.6338 15.8875 16.1541 17.6385 16.1541C19.3896 16.1541 20.8693 17.6338 20.8693 19.3848C20.8693 21.1359 19.3896 22.6156 17.6385 22.6156ZM17.6385 18.0002C16.901 18.0002 16.2539 18.6473 16.2539 19.3848C16.2539 20.1224 16.901 20.7694 17.6385 20.7694C18.3761 20.7694 19.0232 20.1224 19.0232 19.3848C19.0232 18.6473 18.3756 18.0002 17.6385 18.0002Z" fill="black"/>
<path d="M6.54505 15.3062C5.16921 15.3062 3.98952 14.2918 3.80445 12.9025C3.73706 12.3972 4.09245 11.9329 4.59783 11.8659C5.09952 11.7972 5.56752 12.1539 5.63444 12.6593C5.69998 13.1499 6.1449 13.4956 6.62951 13.4568C7.14874 13.4125 7.58536 13.7887 7.62966 14.2959C7.67443 14.8036 7.29828 15.2513 6.79105 15.2961C6.70844 15.3025 6.62582 15.3062 6.54505 15.3062Z" fill="black"/>
</svg>
