<svg width="104" height="64" viewBox="0 0 104 64" fill="none" xmlns="http://www.w3.org/2000/svg">
<path d="M41.1204 33.8655C40.6473 33.8655 40.2444 33.5037 40.2019 33.0237C40.1567 32.516 40.5324 32.0678 41.0401 32.0231H41.041C41.1028 31.5172 41.5598 31.1605 42.0698 31.2195C42.5761 31.2818 42.9356 31.7425 42.8733 32.2483C42.7676 33.1072 42.0647 33.7857 41.2025 33.8618C41.1748 33.8646 41.1472 33.8655 41.1204 33.8655Z" fill="black"/>
<path d="M26.1278 35.1772C25.6543 35.1772 25.2514 34.8149 25.2094 34.3344C25.1646 33.8263 25.5407 33.3791 26.0484 33.3343L41.0405 32.0226C41.551 31.9755 41.9959 32.354 42.0402 32.8617C42.085 33.3698 41.7088 33.8171 41.2011 33.8618L26.2091 35.1735C26.1823 35.1758 26.1546 35.1772 26.1278 35.1772Z" fill="black"/>
<path d="M41.9581 33.0588C41.9202 33.0588 41.8824 33.0565 41.8441 33.0518C41.3378 32.9895 40.9782 32.5289 41.0405 32.0231L42.1607 22.9294C42.2235 22.4236 42.6873 22.064 43.1894 22.1263C43.6958 22.1887 44.0553 22.6493 43.993 23.1551L42.8728 32.2488C42.8156 32.7163 42.4173 33.0588 41.9581 33.0588Z" fill="black"/>
<path d="M23.6692 25.6631C23.1957 25.6631 22.7928 25.3008 22.7508 24.8203C22.706 24.3122 23.0821 23.865 23.5898 23.8202L42.9965 22.1222C43.5061 22.0756 43.9519 22.4536 43.9962 22.9613C44.041 23.4694 43.6648 23.9166 43.1571 23.9614L23.7504 25.6594C23.7232 25.6617 23.696 25.6631 23.6692 25.6631Z" fill="black"/>
<path d="M23.4288 23.8594C22.9737 23.8594 22.5772 23.5225 22.5154 23.0586V23.0577C22.0058 23.0577 21.5923 22.6446 21.5923 22.1347C21.5923 21.6247 22.0058 21.2116 22.5154 21.2116C23.4366 21.2116 24.2231 21.9002 24.3454 22.8136C24.4128 23.319 24.0578 23.7833 23.5524 23.8511C23.5104 23.8566 23.4698 23.8594 23.4288 23.8594Z" fill="black"/>
<path d="M22.5149 23.0582H20.9231C20.4135 23.0582 20 22.6446 20 22.1351C20 21.6256 20.4135 21.212 20.9231 21.212H22.5149C23.0245 21.212 23.438 21.6256 23.438 22.1351C23.438 22.6446 23.0249 23.0582 22.5149 23.0582Z" fill="black"/>
<path d="M24.7183 33.5309C24.2632 33.5309 23.8663 33.194 23.8049 32.7297L22.5149 23.0582C22.4475 22.5528 22.8025 22.0885 23.3078 22.0211C23.81 21.9528 24.278 22.3087 24.3449 22.814L25.6344 32.486C25.7018 32.9914 25.3469 33.4557 24.8415 33.5231C24.8 33.5286 24.7594 33.5309 24.7183 33.5309Z" fill="black"/>
<path d="M28.8693 42.4427C27.1183 42.4427 25.6386 40.963 25.6386 39.212C25.6386 37.4609 27.1183 35.9812 28.8693 35.9812C30.6204 35.9812 32.1001 37.4609 32.1001 39.212C32.1001 40.963 30.6204 42.4427 28.8693 42.4427ZM28.8693 37.8274C28.1318 37.8274 27.4847 38.4744 27.4847 39.212C27.4847 39.9495 28.1318 40.5966 28.8693 40.5966C29.6069 40.5966 30.254 39.9495 30.254 39.212C30.254 38.4744 29.6064 37.8274 28.8693 37.8274Z" fill="black"/>
<path d="M37.6385 42.4427C35.8875 42.4427 34.4078 40.963 34.4078 39.212C34.4078 37.4609 35.8875 35.9812 37.6385 35.9812C39.3896 35.9812 40.8693 37.4609 40.8693 39.212C40.8693 40.963 39.3896 42.4427 37.6385 42.4427ZM37.6385 37.8274C36.901 37.8274 36.2539 38.4744 36.2539 39.212C36.2539 39.9495 36.901 40.5966 37.6385 40.5966C38.3761 40.5966 39.0232 39.9495 39.0232 39.212C39.0232 38.4744 38.3756 37.8274 37.6385 37.8274Z" fill="black"/>
<path d="M26.5451 35.1334C25.1692 35.1334 23.9895 34.1189 23.8044 32.7297C23.7371 32.2243 24.0924 31.76 24.5978 31.6931C25.0995 31.6243 25.5675 31.9811 25.6344 32.4865C25.7 32.9771 26.1449 33.3228 26.6295 33.284C27.1487 33.2397 27.5854 33.6158 27.6297 34.1231C27.6744 34.6308 27.2983 35.0784 26.7911 35.1232C26.7084 35.1297 26.6258 35.1334 26.5451 35.1334Z" fill="black"/>
<rect x="13" y="16.2116" width="15" height="15" rx="7.5" fill="#E02C24"/>
<g filter="url(#filter0_d_235_656)">
<path d="M19.764 28.2116V20.5316L20.604 21.3716H18.084V19.8116H21.708V28.2116H19.764Z" fill="white"/>
</g>
<path d="M81.1204 33.8655C80.6473 33.8655 80.2444 33.5037 80.2019 33.0237C80.1567 32.516 80.5324 32.0678 81.0401 32.0231H81.041C81.1028 31.5172 81.5598 31.1605 82.0698 31.2195C82.5761 31.2818 82.9356 31.7425 82.8733 32.2483C82.7676 33.1072 82.0647 33.7857 81.2025 33.8618C81.1748 33.8646 81.1472 33.8655 81.1204 33.8655Z" fill="black"/>
<path d="M66.1278 35.1772C65.6543 35.1772 65.2514 34.8149 65.2094 34.3344C65.1646 33.8263 65.5407 33.3791 66.0484 33.3343L81.0405 32.0226C81.551 31.9755 81.9959 32.354 82.0402 32.8617C82.085 33.3698 81.7088 33.8171 81.2011 33.8618L66.2091 35.1735C66.1823 35.1758 66.1546 35.1772 66.1278 35.1772Z" fill="black"/>
<path d="M81.9581 33.0588C81.9202 33.0588 81.8824 33.0565 81.8441 33.0518C81.3378 32.9895 80.9782 32.5289 81.0405 32.0231L82.1607 22.9294C82.2235 22.4236 82.6873 22.064 83.1894 22.1263C83.6958 22.1887 84.0553 22.6493 83.993 23.1551L82.8728 32.2488C82.8156 32.7163 82.4173 33.0588 81.9581 33.0588Z" fill="black"/>
<path d="M63.6692 25.6631C63.1957 25.6631 62.7928 25.3008 62.7508 24.8203C62.706 24.3122 63.0821 23.865 63.5898 23.8202L82.9965 22.1222C83.5061 22.0756 83.9519 22.4536 83.9962 22.9613C84.041 23.4694 83.6648 23.9166 83.1571 23.9614L63.7504 25.6594C63.7232 25.6617 63.696 25.6631 63.6692 25.6631Z" fill="black"/>
<path d="M63.4288 23.8594C62.9737 23.8594 62.5772 23.5225 62.5154 23.0586V23.0577C62.0058 23.0577 61.5923 22.6446 61.5923 22.1347C61.5923 21.6247 62.0058 21.2116 62.5154 21.2116C63.4366 21.2116 64.2231 21.9002 64.3454 22.8136C64.4128 23.319 64.0578 23.7833 63.5524 23.8511C63.5104 23.8566 63.4698 23.8594 63.4288 23.8594Z" fill="black"/>
<path d="M62.5149 23.0582H60.9231C60.4135 23.0582 60 22.6446 60 22.1351C60 21.6256 60.4135 21.212 60.9231 21.212H62.5149C63.0245 21.212 63.438 21.6256 63.438 22.1351C63.438 22.6446 63.0249 23.0582 62.5149 23.0582Z" fill="black"/>
<path d="M64.7183 33.5309C64.2632 33.5309 63.8663 33.194 63.8049 32.7297L62.5149 23.0582C62.4475 22.5528 62.8025 22.0885 63.3078 22.0211C63.81 21.9528 64.278 22.3087 64.3449 22.814L65.6344 32.486C65.7018 32.9914 65.3469 33.4557 64.8415 33.5231C64.8 33.5286 64.7594 33.5309 64.7183 33.5309Z" fill="black"/>
<path d="M68.8693 42.4427C67.1183 42.4427 65.6386 40.963 65.6386 39.212C65.6386 37.4609 67.1183 35.9812 68.8693 35.9812C70.6204 35.9812 72.1001 37.4609 72.1001 39.212C72.1001 40.963 70.6204 42.4427 68.8693 42.4427ZM68.8693 37.8274C68.1318 37.8274 67.4847 38.4744 67.4847 39.212C67.4847 39.9495 68.1318 40.5966 68.8693 40.5966C69.6069 40.5966 70.254 39.9495 70.254 39.212C70.254 38.4744 69.6064 37.8274 68.8693 37.8274Z" fill="black"/>
<path d="M77.6385 42.4427C75.8875 42.4427 74.4078 40.963 74.4078 39.212C74.4078 37.4609 75.8875 35.9812 77.6385 35.9812C79.3896 35.9812 80.8693 37.4609 80.8693 39.212C80.8693 40.963 79.3896 42.4427 77.6385 42.4427ZM77.6385 37.8274C76.901 37.8274 76.2539 38.4744 76.2539 39.212C76.2539 39.9495 76.901 40.5966 77.6385 40.5966C78.3761 40.5966 79.0232 39.9495 79.0232 39.212C79.0232 38.4744 78.3756 37.8274 77.6385 37.8274Z" fill="black"/>
<path d="M66.5451 35.1334C65.1692 35.1334 63.9895 34.1189 63.8044 32.7297C63.7371 32.2243 64.0924 31.76 64.5978 31.6931C65.0995 31.6243 65.5675 31.9811 65.6344 32.4865C65.7 32.9771 66.1449 33.3228 66.6295 33.284C67.1487 33.2397 67.5854 33.6158 67.6297 34.1231C67.6744 34.6308 67.2983 35.0784 66.7911 35.1232C66.7084 35.1297 66.6258 35.1334 66.5451 35.1334Z" fill="black"/>
<rect x="0.5" y="0.5" width="103" height="63" rx="4.5" stroke="#9747FF" stroke-dasharray="10 5"/>
<defs>
<filter id="filter0_d_235_656" x="14.084" y="19.8116" width="11.624" height="16.4" filterUnits="userSpaceOnUse" color-interpolation-filters="sRGB">
<feFlood flood-opacity="0" result="BackgroundImageFix"/>
<feColorMatrix in="SourceAlpha" type="matrix" values="0 0 0 0 0 0 0 0 0 0 0 0 0 0 0 0 0 0 127 0" result="hardAlpha"/>
<feOffset dy="4"/>
<feGaussianBlur stdDeviation="2"/>
<feComposite in2="hardAlpha" operator="out"/>
<feColorMatrix type="matrix" values="0 0 0 0 0 0 0 0 0 0 0 0 0 0 0 0 0 0 0.25 0"/>
<feBlend mode="normal" in2="BackgroundImageFix" result="effect1_dropShadow_235_656"/>
<feBlend mode="normal" in="SourceGraphic" in2="effect1_dropShadow_235_656" result="shape"/>
</filter>
</defs>
</svg>
