<svg width="24" height="25" viewBox="0 0 24 25" fill="none" xmlns="http://www.w3.org/2000/svg">
<path d="M21.1204 14.8655C20.6473 14.8655 20.2444 14.5037 20.2019 14.0237C20.1567 13.516 20.5324 13.0678 21.0401 13.0231H21.041C21.1028 12.5172 21.5598 12.1605 22.0698 12.2195C22.5761 12.2818 22.9356 12.7425 22.8733 13.2483C22.7676 14.1072 22.0647 14.7857 21.2025 14.8618C21.1748 14.8646 21.1471 14.8655 21.1204 14.8655Z" fill="black"/>
<path d="M6.12782 16.1772C5.65429 16.1772 5.25136 15.8149 5.20936 15.3345C5.1646 14.8263 5.54075 14.3791 6.04844 14.3343L21.0405 13.0226C21.551 12.9755 21.9959 13.354 22.0402 13.8617C22.085 14.3698 21.7088 14.8171 21.2011 14.8618L6.20905 16.1735C6.18228 16.1758 6.15459 16.1772 6.12782 16.1772Z" fill="black"/>
<path d="M21.9581 14.0588C21.9202 14.0588 21.8824 14.0565 21.8441 14.0518C21.3378 13.9895 20.9782 13.5289 21.0405 13.0231L22.1607 3.92942C22.2235 3.42357 22.6873 3.06404 23.1894 3.12634C23.6958 3.18865 24.0553 3.64927 23.993 4.15511L22.8728 13.2488C22.8156 13.7163 22.4173 14.0588 21.9581 14.0588Z" fill="black"/>
<path d="M3.66922 6.6631C3.19568 6.6631 2.79276 6.30079 2.75076 5.82033C2.70599 5.31218 3.08214 4.86495 3.58983 4.82018L22.9965 3.12219C23.5061 3.07558 23.9519 3.45357 23.9962 3.96126C24.041 4.46942 23.6648 4.91664 23.1571 4.96141L3.75045 6.65941C3.72322 6.66172 3.69599 6.6631 3.66922 6.6631Z" fill="black"/>
<path d="M3.42876 4.85941C2.97368 4.85941 2.57722 4.52249 2.51537 4.05865V4.05773C2.00584 4.05773 1.5923 3.64465 1.5923 3.13465C1.5923 2.62465 2.00584 2.21158 2.51537 2.21158C3.4366 2.21158 4.22306 2.90019 4.34537 3.81357C4.41275 4.31896 4.05783 4.78326 3.55245 4.85111C3.51045 4.85665 3.46983 4.85941 3.42876 4.85941Z" fill="black"/>
<path d="M2.51491 4.05819H0.923073C0.413537 4.05819 0 3.64465 0 3.13511C0 2.62558 0.413537 2.21204 0.923073 2.21204H2.51491C3.02445 2.21204 3.43799 2.62558 3.43799 3.13511C3.43799 3.64465 3.02491 4.05819 2.51491 4.05819Z" fill="black"/>
<path d="M4.71829 14.5309C4.26321 14.5309 3.86629 14.194 3.80491 13.7297L2.51491 4.05819C2.44753 3.5528 2.80245 3.0885 3.30783 3.02111C3.80999 2.95281 4.27798 3.30865 4.34491 3.81403L5.63444 13.486C5.70182 13.9914 5.3469 14.4557 4.84152 14.5231C4.79998 14.5286 4.75937 14.5309 4.71829 14.5309Z" fill="black"/>
<path d="M8.86935 23.4427C7.11828 23.4427 5.63859 21.963 5.63859 20.212C5.63859 18.4609 7.11828 16.9812 8.86935 16.9812C10.6204 16.9812 12.1001 18.4609 12.1001 20.212C12.1001 21.963 10.6204 23.4427 8.86935 23.4427ZM8.86935 18.8274C8.13181 18.8274 7.48474 19.4744 7.48474 20.212C7.48474 20.9495 8.13181 21.5966 8.86935 21.5966C9.60689 21.5966 10.254 20.9495 10.254 20.212C10.254 19.4744 9.60642 18.8274 8.86935 18.8274Z" fill="black"/>
<path d="M17.6385 23.4427C15.8875 23.4427 14.4078 21.963 14.4078 20.212C14.4078 18.4609 15.8875 16.9812 17.6385 16.9812C19.3896 16.9812 20.8693 18.4609 20.8693 20.212C20.8693 21.963 19.3896 23.4427 17.6385 23.4427ZM17.6385 18.8274C16.901 18.8274 16.2539 19.4744 16.2539 20.212C16.2539 20.9495 16.901 21.5966 17.6385 21.5966C18.3761 21.5966 19.0232 20.9495 19.0232 20.212C19.0232 19.4744 18.3756 18.8274 17.6385 18.8274Z" fill="black"/>
<path d="M6.54505 16.1334C5.16921 16.1334 3.98952 15.1189 3.80445 13.7297C3.73706 13.2243 4.09245 12.76 4.59783 12.6931C5.09952 12.6243 5.56752 12.9811 5.63444 13.4865C5.69998 13.9771 6.1449 14.3228 6.62951 14.284C7.14874 14.2397 7.58536 14.6158 7.62966 15.1231C7.67443 15.6308 7.29828 16.0784 6.79105 16.1232C6.70844 16.1297 6.62582 16.1334 6.54505 16.1334Z" fill="black"/>
</svg>
