<svg width="31" height="28" viewBox="0 0 31 28" fill="none" xmlns="http://www.w3.org/2000/svg">
<path d="M28.1204 17.8655C27.6473 17.8655 27.2444 17.5037 27.2019 17.0237C27.1567 16.516 27.5324 16.0678 28.0401 16.0231H28.041C28.1028 15.5172 28.5598 15.1605 29.0698 15.2195C29.5761 15.2818 29.9356 15.7425 29.8733 16.2483C29.7676 17.1072 29.0647 17.7857 28.2025 17.8618C28.1748 17.8646 28.1471 17.8655 28.1204 17.8655Z" fill="black"/>
<path d="M13.1278 19.1772C12.6543 19.1772 12.2514 18.8149 12.2094 18.3345C12.1646 17.8263 12.5407 17.3791 13.0484 17.3343L28.0405 16.0226C28.551 15.9755 28.9959 16.354 29.0402 16.8617C29.085 17.3698 28.7088 17.8171 28.2011 17.8618L13.2091 19.1735C13.1823 19.1758 13.1546 19.1772 13.1278 19.1772Z" fill="black"/>
<path d="M28.9581 17.0588C28.9202 17.0588 28.8824 17.0565 28.8441 17.0518C28.3378 16.9895 27.9782 16.5289 28.0405 16.0231L29.1607 6.92942C29.2235 6.42357 29.6873 6.06404 30.1894 6.12634C30.6958 6.18865 31.0553 6.64927 30.993 7.15511L29.8728 16.2488C29.8156 16.7163 29.4173 17.0588 28.9581 17.0588Z" fill="black"/>
<path d="M10.6692 9.6631C10.1957 9.6631 9.79276 9.30079 9.75076 8.82033C9.70599 8.31218 10.0821 7.86495 10.5898 7.82018L29.9965 6.12219C30.5061 6.07558 30.9519 6.45357 30.9962 6.96126C31.041 7.46942 30.6648 7.91664 30.1571 7.96141L10.7504 9.65941C10.7232 9.66172 10.696 9.6631 10.6692 9.6631Z" fill="black"/>
<path d="M10.4288 7.85941C9.97368 7.85941 9.57722 7.52249 9.51537 7.05865V7.05773C9.00584 7.05773 8.5923 6.64465 8.5923 6.13465C8.5923 5.62465 9.00584 5.21158 9.51537 5.21158C10.4366 5.21158 11.2231 5.90019 11.3454 6.81357C11.4128 7.31896 11.0578 7.78326 10.5524 7.85111C10.5104 7.85665 10.4698 7.85941 10.4288 7.85941Z" fill="black"/>
<path d="M9.51491 7.05819H7.92307C7.41354 7.05819 7 6.64465 7 6.13511C7 5.62558 7.41354 5.21204 7.92307 5.21204H9.51491C10.0244 5.21204 10.438 5.62558 10.438 6.13511C10.438 6.64465 10.0249 7.05819 9.51491 7.05819Z" fill="black"/>
<path d="M11.7183 17.5309C11.2632 17.5309 10.8663 17.194 10.8049 16.7297L9.51491 7.05819C9.44753 6.5528 9.80245 6.0885 10.3078 6.02111C10.81 5.95281 11.278 6.30865 11.3449 6.81403L12.6344 16.486C12.7018 16.9914 12.3469 17.4557 11.8415 17.5231C11.8 17.5286 11.7594 17.5309 11.7183 17.5309Z" fill="black"/>
<path d="M15.8693 26.4427C14.1183 26.4427 12.6386 24.963 12.6386 23.212C12.6386 21.4609 14.1183 19.9812 15.8693 19.9812C17.6204 19.9812 19.1001 21.4609 19.1001 23.212C19.1001 24.963 17.6204 26.4427 15.8693 26.4427ZM15.8693 21.8274C15.1318 21.8274 14.4847 22.4744 14.4847 23.212C14.4847 23.9495 15.1318 24.5966 15.8693 24.5966C16.6069 24.5966 17.254 23.9495 17.254 23.212C17.254 22.4744 16.6064 21.8274 15.8693 21.8274Z" fill="black"/>
<path d="M24.6385 26.4427C22.8875 26.4427 21.4078 24.963 21.4078 23.212C21.4078 21.4609 22.8875 19.9812 24.6385 19.9812C26.3896 19.9812 27.8693 21.4609 27.8693 23.212C27.8693 24.963 26.3896 26.4427 24.6385 26.4427ZM24.6385 21.8274C23.901 21.8274 23.2539 22.4744 23.2539 23.212C23.2539 23.9495 23.901 24.5966 24.6385 24.5966C25.3761 24.5966 26.0232 23.9495 26.0232 23.212C26.0232 22.4744 25.3756 21.8274 24.6385 21.8274Z" fill="black"/>
<path d="M13.5451 19.1334C12.1692 19.1334 10.9895 18.1189 10.8044 16.7297C10.7371 16.2243 11.0924 15.76 11.5978 15.6931C12.0995 15.6243 12.5675 15.9811 12.6344 16.4865C12.7 16.9771 13.1449 17.3228 13.6295 17.284C14.1487 17.2397 14.5854 17.6158 14.6297 18.1231C14.6744 18.6308 14.2983 19.0784 13.7911 19.1232C13.7084 19.1297 13.6258 19.1334 13.5451 19.1334Z" fill="black"/>
<rect y="0.211578" width="15" height="15" rx="7.5" fill="#E02C24"/>
<g filter="url(#filter0_d_235_657)">
<path d="M6.764 12.2116V4.53158L7.604 5.37158H5.084V3.81158H8.708V12.2116H6.764Z" fill="white"/>
</g>
<defs>
<filter id="filter0_d_235_657" x="1.08398" y="3.81158" width="11.624" height="16.4" filterUnits="userSpaceOnUse" color-interpolation-filters="sRGB">
<feFlood flood-opacity="0" result="BackgroundImageFix"/>
<feColorMatrix in="SourceAlpha" type="matrix" values="0 0 0 0 0 0 0 0 0 0 0 0 0 0 0 0 0 0 127 0" result="hardAlpha"/>
<feOffset dy="4"/>
<feGaussianBlur stdDeviation="2"/>
<feComposite in2="hardAlpha" operator="out"/>
<feColorMatrix type="matrix" values="0 0 0 0 0 0 0 0 0 0 0 0 0 0 0 0 0 0 0.25 0"/>
<feBlend mode="normal" in2="BackgroundImageFix" result="effect1_dropShadow_235_657"/>
<feBlend mode="normal" in="SourceGraphic" in2="effect1_dropShadow_235_657" result="shape"/>
</filter>
</defs>
</svg>
