<svg width="42" height="46" viewBox="0 0 42 46" fill="none" xmlns="http://www.w3.org/2000/svg">
<g clip-path="url(#clip0_530_536)">
<path d="M41.9594 13.7301C41.861 11.3391 41.5001 9.69529 40.9831 8.27091C40.4498 6.75897 39.6293 5.40532 38.5544 4.28004C37.5041 3.13723 36.2324 2.24923 34.8376 1.68676C33.5005 1.13287 31.9743 0.74621 29.7426 0.64079C27.4944 0.526441 26.7806 0.5 21.0783 0.5C15.376 0.5 14.6623 0.526441 12.4223 0.631862C10.1907 0.737282 8.65649 1.12428 7.32739 1.67783C5.91592 2.24923 4.65252 3.12831 3.60225 4.28004C2.53564 5.40532 1.70715 6.76789 1.18186 8.26233C0.664895 9.69529 0.304015 11.3302 0.205623 13.7212C0.098897 16.1301 0.0742188 16.8948 0.0742188 23.0044C0.0742188 29.114 0.098897 29.8787 0.19729 32.2787C0.295682 34.6697 0.656883 36.3135 1.17384 37.7379C1.70715 39.2498 2.53564 40.6035 3.60225 41.7288C4.65252 42.8716 5.92425 43.7596 7.31906 44.322C8.65649 44.8759 10.1824 45.2626 12.4143 45.368C14.654 45.4738 15.368 45.4999 21.0703 45.4999C26.7726 45.4999 27.4863 45.4738 29.7263 45.368C31.9579 45.2626 33.4921 44.8759 34.8212 44.322C37.6439 43.1528 39.8755 40.7618 40.9668 37.7379C41.4834 36.3049 41.8446 34.6697 41.943 32.2787C42.0414 29.8787 42.0661 29.114 42.0661 23.0044C42.0661 16.8948 42.0578 16.1301 41.9594 13.7301ZM38.1772 32.1029C38.0868 34.3005 37.7423 35.4873 37.4551 36.2785C36.7494 38.2389 35.2972 39.7948 33.4675 40.5509C32.729 40.8586 31.6134 41.2277 29.5702 41.3242C27.3549 41.43 26.6905 41.4561 21.0867 41.4561C15.4828 41.4561 14.81 41.43 12.6028 41.3242C10.5516 41.2277 9.44395 40.8586 8.70553 40.5509C7.795 40.1904 6.96619 39.619 6.29347 38.8717C5.59607 38.142 5.06276 37.263 4.72624 36.2874C4.43907 35.4962 4.09454 34.3005 4.00448 32.1118C3.90576 29.7383 3.88141 29.0261 3.88141 23.0219C3.88141 17.0177 3.90576 16.297 4.00448 13.9324C4.09454 11.7347 4.43907 10.5479 4.72624 9.75676C5.06276 8.78085 5.59607 7.89318 6.3018 7.17206C6.98254 6.42485 7.80301 5.85345 8.71386 5.49323C9.45229 5.18555 10.5683 4.81641 12.6111 4.71957C14.8264 4.61415 15.4911 4.58771 21.0947 4.58771C26.7069 4.58771 27.3713 4.61415 29.5786 4.71957C31.6297 4.81641 32.7374 5.18555 33.4758 5.49323C34.3863 5.85345 35.2151 6.42485 35.8879 7.17206C36.5853 7.90177 37.1186 8.78085 37.4551 9.75676C37.7423 10.5479 38.0868 11.7433 38.1772 13.9324C38.2756 16.3059 38.3002 17.0177 38.3002 23.0219C38.3002 29.0261 38.2756 29.7293 38.1772 32.1029Z" fill="white"/>
<path d="M21.0783 11.4445C15.1218 11.4445 10.2891 16.6222 10.2891 23.0044C10.2891 29.3866 15.1218 34.5643 21.0783 34.5643C27.035 34.5643 31.8675 29.3866 31.8675 23.0044C31.8675 16.6222 27.035 11.4445 21.0783 11.4445ZM21.0783 30.503C17.214 30.503 14.0796 27.145 14.0796 23.0044C14.0796 18.8638 17.214 15.5058 21.0783 15.5058C24.9428 15.5058 28.077 18.8638 28.077 23.0044C28.077 27.145 24.9428 30.503 21.0783 30.503Z" fill="white"/>
<path d="M34.8133 10.9875C34.8133 12.4778 33.6855 13.6862 32.2942 13.6862C30.9032 13.6862 29.7754 12.4778 29.7754 10.9875C29.7754 9.49686 30.9032 8.28882 32.2942 8.28882C33.6855 8.28882 34.8133 9.49686 34.8133 10.9875Z" fill="white"/>
</g>
<defs>
<clipPath id="clip0_530_536">
<rect width="42" height="45" fill="white" transform="translate(0 0.5)"/>
</clipPath>
</defs>
</svg>
