<svg width="24" height="24" viewBox="0 0 24 24" fill="none" xmlns="http://www.w3.org/2000/svg">
<path d="M12.0001 0C9.66648 0 7.42848 0.92701 5.77839 2.5771C4.1283 4.22719 3.20129 6.46519 3.20129 8.79876C3.20129 13.4461 11.0402 23.2767 11.3761 23.7007C11.4511 23.7941 11.5461 23.8695 11.6541 23.9213C11.762 23.9731 11.8803 24 12.0001 24C12.1198 24 12.2381 23.9731 12.3461 23.9213C12.454 23.8695 12.549 23.7941 12.624 23.7007C12.9599 23.2767 20.7988 13.4461 20.7988 8.79876C20.7988 6.46519 19.8718 4.22719 18.2217 2.5771C16.5716 0.92701 14.3336 0 12.0001 0ZM12.0001 11.1984C11.3672 11.1984 10.7486 11.0108 10.2225 10.6592C9.69632 10.3076 9.28622 9.80793 9.04406 9.22329C8.80189 8.63865 8.73853 7.99533 8.86198 7.37467C8.98544 6.75402 9.29017 6.18392 9.73763 5.73645C10.1851 5.28899 10.7552 4.98426 11.3759 4.8608C11.9965 4.73735 12.6398 4.80071 13.2245 5.04288C13.8091 5.28504 14.3088 5.69514 14.6604 6.2213C15.012 6.74746 15.1996 7.36606 15.1996 7.99887C15.1996 8.84745 14.8625 9.66127 14.2625 10.2613C13.6624 10.8613 12.8486 11.1984 12.0001 11.1984Z" fill="black"/>
</svg>
