<svg width="25" height="25" viewBox="0 0 25 25" fill="none" xmlns="http://www.w3.org/2000/svg">
<path d="M12.5 22.2422C12.1441 22.2422 11.8009 22.1132 11.5335 21.879C10.5236 20.9959 9.54988 20.166 8.69082 19.434L8.68643 19.4302C6.16778 17.2838 3.99284 15.4303 2.47955 13.6044C0.787924 11.5631 0 9.62776 0 7.51347C0 5.45926 0.704382 3.56412 1.98326 2.17691C3.27739 0.773291 5.05313 0.000244141 6.98393 0.000244141C8.42703 0.000244141 9.74863 0.456481 10.9119 1.35618C11.499 1.81031 12.0311 2.36611 12.5 3.01442C12.969 2.36611 13.5009 1.81031 14.0882 1.35618C15.2515 0.456481 16.5731 0.000244141 18.0162 0.000244141C19.9468 0.000244141 21.7228 0.773291 23.0169 2.17691C24.2958 3.56412 25 5.45926 25 7.51347C25 9.62776 24.2122 11.5631 22.5206 13.6042C21.0073 15.4303 18.8326 17.2837 16.3143 19.4298C15.4537 20.163 14.4785 20.9942 13.4662 21.8794C13.199 22.1132 12.8557 22.2422 12.5 22.2422V22.2422ZM6.98393 1.4647C5.46702 1.4647 4.07352 2.07009 3.05976 3.16949C2.03094 4.28548 1.46427 5.82814 1.46427 7.51347C1.46427 9.29168 2.12516 10.882 3.60698 12.67C5.03921 14.3982 7.16952 16.2136 9.6361 18.3157L9.64067 18.3195C10.503 19.0544 11.4805 19.8876 12.4979 20.7771C13.5214 19.8858 14.5004 19.0514 15.3644 18.3153C17.8308 16.2132 19.9609 14.3982 21.3932 12.67C22.8748 10.882 23.5357 9.29168 23.5357 7.51347C23.5357 5.82814 22.969 4.28548 21.9402 3.16949C20.9266 2.07009 19.5329 1.4647 18.0162 1.4647C16.905 1.4647 15.8847 1.81794 14.9839 2.51451C14.1811 3.13554 13.6219 3.9206 13.294 4.46992C13.1254 4.75239 12.8286 4.921 12.5 4.921C12.1713 4.921 11.8746 4.75239 11.7059 4.46992C11.3783 3.9206 10.819 3.13554 10.016 2.51451C9.1152 1.81794 8.09496 1.4647 6.98393 1.4647V1.4647Z" fill="#867AAA"/>
</svg>
