<svg width="25" height="25" viewBox="0 0 25 25" fill="none" xmlns="http://www.w3.org/2000/svg">
<path d="M25 7.43137C25 9.52231 24.2123 11.4372 22.5208 13.4557C21.0073 15.262 18.8328 17.0952 16.3141 19.218C15.4535 19.9432 14.4783 20.7654 13.4665 21.6412C13.2013 21.8706 12.8616 21.9979 12.5088 22H12.5C12.1441 22 11.801 21.8725 11.5335 21.6408C10.5236 20.7673 9.5499 19.946 8.69083 19.2218L8.68645 19.2186C6.16817 17.0956 3.99265 15.262 2.47955 13.4557C0.787735 11.4372 0 9.52231 0 7.43137C0 5.39968 0.704384 3.52495 1.98326 2.15282C3.27759 0.764268 5.05333 0 6.98395 0C8.42724 0 9.74846 0.450901 10.9121 1.34082C11.4994 1.79021 12.0314 2.33959 12.5 2.98123L12.5088 2.96972C12.9755 2.33299 13.5046 1.78738 14.0882 1.34082C15.2515 0.450901 16.5733 0 18.0161 0C19.9471 0 21.7228 0.764268 23.0167 2.15282C24.2956 3.52495 25 5.39911 25 7.43137Z" fill="#8D60B5"/>
<path d="M24.9999 7.43137C24.9999 9.52231 24.2122 11.4372 22.5207 13.4557C21.0072 15.262 18.8327 17.0952 16.314 19.218C15.4534 19.9432 14.4782 20.7654 13.4663 21.6412C13.2012 21.8706 12.8615 21.9979 12.5087 22V2.96972C12.9754 2.33299 13.5045 1.78738 14.0881 1.34082C15.2514 0.450901 16.5732 0 18.0159 0C19.9469 0 21.7227 0.764268 23.0166 2.15282C24.2955 3.52495 24.9999 5.39911 24.9999 7.43137Z" fill="#8D60B5"/>
<path d="M12.5 22.2422C12.1441 22.2422 11.8009 22.1132 11.5335 21.879C10.5236 20.9959 9.54988 20.166 8.69082 19.434L8.68643 19.4302C6.16778 17.2838 3.99284 15.4303 2.47955 13.6044C0.787924 11.5631 0 9.62776 0 7.51347C0 5.45926 0.704382 3.56412 1.98326 2.17691C3.27739 0.773291 5.05313 0.000244141 6.98393 0.000244141C8.42703 0.000244141 9.74863 0.456481 10.9119 1.35618C11.499 1.81031 12.0311 2.36611 12.5 3.01442C12.969 2.36611 13.501 1.81031 14.0882 1.35618C15.2515 0.456481 16.5731 0.000244141 18.0162 0.000244141C19.9468 0.000244141 21.7228 0.773291 23.0169 2.17691C24.2958 3.56412 25 5.45926 25 7.51347C25 9.62776 24.2122 11.5631 22.5206 13.6042C21.0073 15.4303 18.8326 17.2837 16.3143 19.4298C15.4537 20.163 14.4785 20.9942 13.4662 21.8794C13.199 22.1132 12.8557 22.2422 12.5 22.2422ZM6.98393 1.4647C5.46702 1.4647 4.07352 2.0701 3.05976 3.16949C2.03094 4.28548 1.46427 5.82814 1.46427 7.51347C1.46427 9.29168 2.12516 10.882 3.60698 12.67C5.03921 14.3982 7.16952 16.2136 9.6361 18.3157L9.64067 18.3195C10.503 19.0544 11.4805 19.8876 12.4979 20.7771C13.5214 19.8858 14.5004 19.0514 15.3644 18.3153C17.8308 16.2132 19.9609 14.3982 21.3932 12.67C22.8748 10.882 23.5357 9.29168 23.5357 7.51347C23.5357 5.82814 22.969 4.28548 21.9402 3.16949C20.9266 2.0701 19.5329 1.4647 18.0162 1.4647C16.905 1.4647 15.8847 1.81794 14.9839 2.51451C14.1811 3.13554 13.6219 3.9206 13.294 4.46992C13.1254 4.75239 12.8286 4.921 12.5 4.921C12.1713 4.921 11.8746 4.75239 11.7059 4.46992C11.3783 3.9206 10.819 3.13554 10.016 2.51451C9.1152 1.81794 8.09496 1.4647 6.98393 1.4647Z" fill="#8D60B5"/>
</svg>
