<svg width="42" height="30" viewBox="0 0 42 30" fill="none" xmlns="http://www.w3.org/2000/svg">
<path d="M21.2537 29.0625C27.3298 29.0625 25.1632 24.9412 25.6322 23.7563C25.6252 22.8713 25.6182 22.02 25.6462 21.5025C26.0312 21.6188 26.9395 22.1119 28.8155 24.0656C31.7118 27.1969 32.452 29.0625 34.7918 29.0625H39.0985C40.4635 29.0625 41.174 28.4569 41.5293 27.9487C41.8723 27.4575 42.2083 26.595 41.8408 25.2525C40.88 22.02 35.2765 16.4381 34.9282 15.8494C34.9808 15.7406 35.0648 15.5962 35.1085 15.5212H35.105C36.211 13.9556 40.432 7.17937 41.0532 4.46812C41.055 4.46437 41.0568 4.45875 41.0568 4.45312C41.3927 3.21563 41.0848 2.41313 40.7663 1.95938C40.2868 1.28063 39.5238 0.9375 38.493 0.9375H34.1862C32.7443 0.9375 31.6505 1.71562 31.0975 3.135C30.1718 5.65688 27.5712 10.8431 25.6217 12.6788C25.5623 10.0781 25.6025 8.0925 25.634 6.61687C25.697 3.73875 25.9 0.9375 23.1122 0.9375H16.3433C14.5967 0.9375 12.9255 2.98125 14.735 5.4075C16.317 7.53375 15.3037 8.71875 15.645 14.6175C14.315 13.0894 11.949 8.9625 10.276 3.68813C9.807 2.26125 9.0965 0.939375 7.09625 0.939375H2.7895C1.043 0.939375 0 1.95937 0 3.6675C0 7.50375 7.92575 29.0625 21.2537 29.0625ZM7.09625 3.75187C7.476 3.75187 7.5145 3.75188 7.79625 4.60875C9.5095 10.0144 13.3525 18.0131 16.1595 18.0131C18.2682 18.0131 18.2682 15.6975 18.2682 14.8256L18.2665 7.88437C18.151 5.5875 17.3705 4.44375 16.8577 3.75L22.9967 3.7575C23.0002 3.78938 22.9618 11.4356 23.0142 13.2881C23.0142 15.9187 24.9637 17.4263 28.007 14.1263C31.2183 10.2431 33.439 4.43813 33.5283 4.20188C33.6595 3.86438 33.7733 3.75 34.1862 3.75H38.493H38.5105C38.5088 3.75563 38.5088 3.76125 38.507 3.76687C38.1133 5.73562 34.2265 12.0094 32.9263 13.9575C32.9053 13.9875 32.886 14.0194 32.8667 14.0513C32.2945 15.0525 31.829 16.1587 32.9455 17.715H32.9473C33.0487 17.8463 33.313 18.1537 33.698 18.5812C34.895 19.905 39.0005 24.4312 39.3645 26.2312C39.123 26.2725 38.8605 26.2425 34.7918 26.2519C33.9255 26.2519 33.2482 24.8644 30.6635 22.0706C28.3395 19.6481 26.831 18.6581 25.4573 18.6581C22.7902 18.6581 22.9845 20.9775 23.009 23.7825C23.0177 26.8237 23.0002 25.8619 23.0195 26.0531C22.8638 26.1188 22.4175 26.25 21.2537 26.25C10.15 26.25 2.919 7.36688 2.64075 3.7575C2.737 3.74813 4.06175 3.75375 7.09625 3.75187Z" fill="white"/>
</svg>
