<svg width="72" height="66" viewBox="0 0 72 66" fill="none" xmlns="http://www.w3.org/2000/svg">
<path d="M44.5077 5.40663C43.6528 3.90416 42.4152 2.65489 40.9209 1.78587C39.4265 0.916836 37.7287 0.459045 36 0.459045C34.2713 0.459045 32.5735 0.916836 31.0791 1.78587C29.5848 2.65489 28.3472 3.90416 27.4923 5.40663L1.72648 51.3117C0.9083 52.7523 0.485324 54.3835 0.500389 56.0401C0.515454 57.6967 0.968024 59.3199 1.81227 60.7454C2.66891 62.216 3.89905 63.4341 5.37805 64.2762C6.85704 65.1183 8.53235 65.5545 10.2342 65.5406H61.7658C63.4676 65.5545 65.143 65.1183 66.622 64.2762C68.101 63.4341 69.3311 62.216 70.1877 60.7454C71.032 59.3199 71.4845 57.6967 71.4996 56.0401C71.5147 54.3835 71.0917 52.7523 70.2735 51.3117L44.5077 5.40663ZM65.0819 57.7665C64.7413 58.3403 64.2554 58.8142 63.6732 59.1404C63.091 59.4666 62.4331 59.6334 61.7658 59.6242H10.2342C9.56608 59.6325 8.90759 59.4643 8.32531 59.1366C7.74303 58.8088 7.2576 58.3331 6.91809 57.7576C6.59628 57.2227 6.42354 56.6114 6.41782 55.9871C6.4121 55.3629 6.5736 54.7485 6.88555 54.2078L32.6513 8.29974C33.0163 7.74499 33.5133 7.2896 34.0978 6.97449C34.6823 6.65937 35.336 6.4944 36 6.4944C36.664 6.4944 37.3177 6.65937 37.9022 6.97449C38.4867 7.2896 38.9837 7.74499 39.3487 8.29974L65.1144 54.2048C65.427 54.7459 65.5888 55.3608 65.5831 55.9857C65.5773 56.6105 65.4043 57.2223 65.0819 57.7576V57.7665Z" fill="white"/>
<path d="M36.0001 18.2097C35.2155 18.2097 34.4631 18.5213 33.9083 19.0761C33.3535 19.6309 33.0419 20.3833 33.0419 21.1678V38.9169C33.0419 39.7015 33.3535 40.4539 33.9083 41.0087C34.4631 41.5635 35.2155 41.8751 36.0001 41.8751C36.7846 41.8751 37.537 41.5635 38.0918 41.0087C38.6466 40.4539 38.9582 39.7015 38.9582 38.9169V21.1678C38.9582 20.3833 38.6466 19.6309 38.0918 19.0761C37.537 18.5213 36.7846 18.2097 36.0001 18.2097Z" fill="white"/>
<path d="M36.0001 53.7078C37.6338 53.7078 38.9582 52.3834 38.9582 50.7496C38.9582 49.1159 37.6338 47.7914 36.0001 47.7914C34.3663 47.7914 33.0419 49.1159 33.0419 50.7496C33.0419 52.3834 34.3663 53.7078 36.0001 53.7078Z" fill="white"/>
</svg>
