<svg width="24" height="24" viewBox="0 0 24 24" fill="none" xmlns="http://www.w3.org/2000/svg">
<g clip-path="url(#clip0_220_4146)">
<path d="M22.2858 3.42859H16.2858V2.57143C16.2858 1.15127 15.1345 0 13.7144 0H10.2858C8.86562 0 7.71435 1.15127 7.71435 2.57143V3.42859H1.71434C1.24093 3.42859 0.857178 3.81234 0.857178 4.28574C0.857178 4.75915 1.24098 5.14285 1.71434 5.14285H2.64603L4.28576 23.2208C4.32619 23.6635 4.6984 24.0018 5.14292 24H18.8572C19.3017 24.0019 19.6739 23.6636 19.7144 23.2208L21.3541 5.14285H22.2858C22.7592 5.14285 23.143 4.7591 23.143 4.28569C23.143 3.81229 22.7592 3.42859 22.2858 3.42859ZM9.42862 2.57143C9.42862 2.09802 9.81237 1.71427 10.2858 1.71427H13.7144C14.1878 1.71427 14.5715 2.09802 14.5715 2.57143V3.42859H9.42867V2.57143H9.42862ZM18.0746 22.2857H5.9255L4.37149 5.14285H8.57151H19.6329L18.0746 22.2857Z" fill="#E02C24"/>
<path d="M9.42885 19.657C9.42875 19.6558 9.4287 19.6546 9.4286 19.6534L8.57144 7.65346C8.53784 7.18006 8.12682 6.82357 7.65346 6.85717C7.18006 6.89077 6.82357 7.3018 6.85717 7.77515L7.71433 19.7751C7.74632 20.2246 8.12089 20.5726 8.57149 20.5714H8.63322C9.10546 20.5386 9.4617 20.1292 9.42885 19.657Z" fill="#E02C24"/>
<path d="M12 6.85718C11.5266 6.85718 11.1428 7.24093 11.1428 7.71434V19.7143C11.1428 20.1877 11.5266 20.5715 12 20.5715C12.4734 20.5715 12.8571 20.1877 12.8571 19.7143V7.71434C12.8571 7.24093 12.4734 6.85718 12 6.85718Z" fill="#E02C24"/>
<path d="M16.3466 6.85717C15.8732 6.82357 15.4622 7.18006 15.4286 7.65346L14.5714 19.6534C14.5367 20.1255 14.8913 20.5364 15.3634 20.5711C15.3649 20.5712 15.3663 20.5713 15.3677 20.5714H15.4286C15.8792 20.5726 16.2538 20.2246 16.2858 19.7751L17.1429 7.77515C17.1765 7.3018 16.82 6.89082 16.3466 6.85717Z" fill="#E02C24"/>
</g>
<defs>
<clipPath id="clip0_220_4146">
<rect width="24" height="24" fill="white"/>
</clipPath>
</defs>
</svg>
