<svg width="233" height="28" viewBox="0 0 233 28" fill="none" xmlns="http://www.w3.org/2000/svg">
<path d="M221.527 28C219.608 28 217.703 27.7509 215.81 27.2528C213.944 26.7285 212.341 25.9944 211 25.0506L213.523 20.1742C214.575 20.9345 215.784 21.5375 217.151 21.9831C218.544 22.4288 219.95 22.6517 221.369 22.6517C222.973 22.6517 224.234 22.3371 225.154 21.7079C226.074 21.0787 226.534 20.2004 226.534 19.073C226.534 18.3652 226.35 17.736 225.982 17.1854C225.614 16.6348 224.957 16.2154 224.011 15.927C223.091 15.6386 221.79 15.4944 220.108 15.4944H213.05L214.47 0H231.305V5.11236H216.756L220.068 2.20225L219.082 13.2528L215.771 10.3427H221.606C224.339 10.3427 226.534 10.7228 228.19 11.4831C229.872 12.2172 231.094 13.2266 231.857 14.5112C232.619 15.7959 233 17.2509 233 18.8764C233 20.5019 232.593 22.0094 231.778 23.3989C230.963 24.7622 229.701 25.8764 227.993 26.7416C226.311 27.5805 224.155 28 221.527 28Z" fill="#E88047"/>
<path d="M198.546 28C196.624 28 194.715 27.7509 192.819 27.2528C190.923 26.7285 189.317 25.9944 188 25.0506L190.488 20.1742C191.542 20.9345 192.766 21.5375 194.162 21.9831C195.557 22.4288 196.966 22.6517 198.388 22.6517C199.994 22.6517 201.258 22.3371 202.18 21.7079C203.101 21.0787 203.562 20.2135 203.562 19.1124C203.562 18.0637 203.154 17.2378 202.338 16.6348C201.521 16.0318 200.205 15.7303 198.388 15.7303H195.465V11.5225L203.167 2.83146L203.878 5.11236H189.382V0H208.736V4.12921L201.074 12.8202L197.835 10.9719H199.691C203.088 10.9719 205.655 11.7322 207.393 13.2528C209.131 14.7734 210 16.7266 210 19.1124C210 20.6592 209.592 22.1142 208.776 23.4775C207.959 24.8146 206.709 25.9026 205.023 26.7416C203.338 27.5805 201.179 28 198.546 28Z" fill="#E88047"/>
<path d="M175.856 18.55V6.38H169.556L169.449 8.8498C169.401 9.87591 169.342 10.8543 169.27 11.7849C169.198 12.7156 169.055 13.5627 168.84 14.3263C168.65 15.0661 168.363 15.6984 167.981 16.2234C167.6 16.7245 167.087 17.0705 166.442 17.2614L160.93 16.474C161.622 16.474 162.183 16.2711 162.612 15.8655C163.042 15.4359 163.376 14.8513 163.615 14.1116C163.853 13.3479 164.032 12.4889 164.151 11.5344C164.271 10.556 164.354 9.52989 164.402 8.45607L164.653 1.79834H181.44V18.55H175.856ZM160.286 25.2078V16.474H184.196V25.2078H179.006V21.0556H165.476V25.2078H160.286Z" fill="#1C262B"/>
<path d="M149.385 21.3422C147.762 21.3422 146.342 20.9843 145.125 20.2684C143.908 19.5525 142.954 18.4667 142.262 17.0111C141.594 15.5316 141.26 13.6703 141.26 11.4272C141.26 9.16024 141.582 7.29894 142.226 5.84331C142.87 4.38768 143.801 3.30192 145.018 2.58603C146.235 1.87015 147.691 1.51221 149.385 1.51221C151.199 1.51221 152.821 1.92981 154.253 2.765C155.709 3.57634 156.854 4.72176 157.689 6.20125C158.548 7.68075 158.978 9.42273 158.978 11.4272C158.978 13.4555 158.548 15.2095 157.689 16.689C156.854 18.1685 155.709 19.3139 154.253 20.1252C152.821 20.9365 151.199 21.3422 149.385 21.3422ZM138.002 27.9999V1.79856H143.336V5.73593L143.228 11.463L143.586 17.1543V27.9999H138.002ZM148.419 16.7605C149.349 16.7605 150.172 16.5458 150.888 16.1163C151.628 15.6867 152.213 15.0782 152.642 14.2907C153.096 13.4794 153.322 12.5249 153.322 11.4272C153.322 10.3057 153.096 9.35114 152.642 8.56367C152.213 7.7762 151.628 7.16769 150.888 6.73816C150.172 6.30863 149.349 6.09387 148.419 6.09387C147.488 6.09387 146.653 6.30863 145.913 6.73816C145.173 7.16769 144.589 7.7762 144.159 8.56367C143.73 9.35114 143.515 10.3057 143.515 11.4272C143.515 12.5249 143.73 13.4794 144.159 14.2907C144.589 15.0782 145.173 15.6867 145.913 16.1163C146.653 16.5458 147.488 16.7605 148.419 16.7605Z" fill="#1C262B"/>
<path d="M123.639 21.3422C121.586 21.3422 119.761 20.9127 118.162 20.0536C116.587 19.1946 115.334 18.0253 114.404 16.5458C113.497 15.0424 113.043 13.3362 113.043 11.4272C113.043 9.49432 113.497 7.78813 114.404 6.30863C115.334 4.80528 116.587 3.636 118.162 2.8008C119.761 1.94174 121.586 1.51221 123.639 1.51221C125.667 1.51221 127.48 1.94174 129.079 2.8008C130.678 3.636 131.931 4.79334 132.838 6.27284C133.744 7.75233 134.198 9.47046 134.198 11.4272C134.198 13.3362 133.744 15.0424 132.838 16.5458C131.931 18.0253 130.678 19.1946 129.079 20.0536C127.48 20.9127 125.667 21.3422 123.639 21.3422ZM123.639 16.7606C124.569 16.7606 125.404 16.5458 126.144 16.1163C126.884 15.6867 127.469 15.0782 127.898 14.2907C128.328 13.4794 128.542 12.5249 128.542 11.4272C128.542 10.3057 128.328 9.35114 127.898 8.56367C127.469 7.7762 126.884 7.1677 126.144 6.73817C125.404 6.30863 124.569 6.09387 123.639 6.09387C122.708 6.09387 121.873 6.30863 121.133 6.73817C120.393 7.1677 119.797 7.7762 119.343 8.56367C118.914 9.35114 118.699 10.3057 118.699 11.4272C118.699 12.5249 118.914 13.4794 119.343 14.2907C119.797 15.0782 120.393 15.6867 121.133 16.1163C121.873 16.5458 122.708 16.7606 123.639 16.7606Z" fill="#D2354A"/>
<path d="M82.1699 21.0559V17.2975L81.8119 16.4742V9.74488C81.8119 8.55174 81.4421 7.62109 80.7023 6.95293C79.9864 6.28477 78.8768 5.95069 77.3735 5.95069C76.3474 5.95069 75.3332 6.11773 74.3309 6.45181C73.3526 6.76203 72.5174 7.19156 71.8253 7.7404L69.8209 3.83883C70.8708 3.09908 72.1356 2.52638 73.6151 2.12071C75.0946 1.71504 76.5979 1.51221 78.1251 1.51221C81.0603 1.51221 83.3392 2.20423 84.9618 3.58827C86.5845 4.97232 87.3958 7.1319 87.3958 10.067V21.0559H82.1699ZM76.2996 21.3422C74.7963 21.3422 73.5077 21.0917 72.4338 20.5905C71.36 20.0656 70.5367 19.3616 69.964 18.4787C69.3913 17.5957 69.105 16.6054 69.105 15.5078C69.105 14.3623 69.3794 13.3601 69.9282 12.501C70.501 11.642 71.3958 10.9738 72.6128 10.4966C73.8298 9.99544 75.4167 9.74488 77.3735 9.74488H82.492V13.0022H77.9819C76.6695 13.0022 75.7627 13.2169 75.2616 13.6465C74.7843 14.076 74.5457 14.6129 74.5457 15.2572C74.5457 15.9731 74.8201 16.5458 75.369 16.9753C75.9417 17.381 76.7172 17.5838 77.6956 17.5838C78.6262 17.5838 79.4614 17.3691 80.2012 16.9395C80.9409 16.4861 81.4779 15.8299 81.8119 14.9708L82.671 17.548C82.2653 18.7889 81.5256 19.7315 80.4518 20.3758C79.3779 21.0201 77.9939 21.3422 76.2996 21.3422Z" fill="#328065"/>
<path d="M57.4524 21.3422C55.8297 21.3422 54.4099 20.9843 53.1929 20.2684C51.9759 19.5525 51.0214 18.4667 50.3293 17.0111C49.6612 15.5316 49.3271 13.6703 49.3271 11.4272C49.3271 9.16024 49.6492 7.29894 50.2935 5.84331C50.9378 4.38768 51.8685 3.30192 53.0855 2.58603C54.3025 1.87015 55.7581 1.51221 57.4524 1.51221C59.266 1.51221 60.8886 1.92981 62.3204 2.765C63.776 3.57634 64.9215 4.72176 65.7567 6.20125C66.6157 7.68075 67.0452 9.42273 67.0452 11.4272C67.0452 13.4555 66.6157 15.2095 65.7567 16.689C64.9215 18.1685 63.776 19.3139 62.3204 20.1252C60.8886 20.9365 59.266 21.3422 57.4524 21.3422ZM46.0698 27.9999V1.79856H51.4032V5.73593L51.2958 11.463L51.6537 17.1543V27.9999H46.0698ZM56.4859 16.7605C57.4166 16.7605 58.2399 16.5458 58.9557 16.1163C59.6955 15.6867 60.2801 15.0782 60.7097 14.2907C61.1631 13.4794 61.3898 12.5249 61.3898 11.4272C61.3898 10.3057 61.1631 9.35114 60.7097 8.56367C60.2801 7.7762 59.6955 7.16769 58.9557 6.73816C58.2399 6.30863 57.4166 6.09387 56.4859 6.09387C55.5553 6.09387 54.7201 6.30863 53.9803 6.73816C53.2406 7.16769 52.656 7.7762 52.2264 8.56367C51.7969 9.35114 51.5821 10.3057 51.5821 11.4272C51.5821 12.5249 51.7969 13.4794 52.2264 14.2907C52.656 15.0782 53.2406 15.6867 53.9803 16.1163C54.7201 16.5458 55.5553 16.7605 56.4859 16.7605Z" fill="#328065"/>
<path d="M36.0297 21.0559V17.2975L35.6718 16.4742V9.74488C35.6718 8.55174 35.3019 7.62109 34.5622 6.95293C33.8463 6.28477 32.7367 5.95069 31.2333 5.95069C30.2072 5.95069 29.193 6.11773 28.1908 6.45181C27.2124 6.76203 26.3772 7.19156 25.6852 7.7404L23.6807 3.83883C24.7307 3.09908 25.9954 2.52638 27.4749 2.12071C28.9544 1.71504 30.4578 1.51221 31.985 1.51221C34.9201 1.51221 37.199 2.20423 38.8217 3.58827C40.4444 4.97232 41.2557 7.1319 41.2557 10.067V21.0559H36.0297ZM30.1595 21.3422C28.6561 21.3422 27.3675 21.0917 26.2937 20.5905C25.2199 20.0656 24.3966 19.3616 23.8239 18.4787C23.2512 17.5957 22.9648 16.6054 22.9648 15.5078C22.9648 14.3623 23.2393 13.3601 23.7881 12.501C24.3608 11.642 25.2557 10.9738 26.4727 10.4966C27.6897 9.99544 29.2766 9.74488 31.2333 9.74488H36.3519V13.0022H31.8418C30.5294 13.0022 29.6226 13.2169 29.1215 13.6465C28.6442 14.076 28.4056 14.6129 28.4056 15.2572C28.4056 15.9731 28.68 16.5458 29.2288 16.9753C29.8015 17.381 30.5771 17.5838 31.5555 17.5838C32.4861 17.5838 33.3213 17.3691 34.0611 16.9395C34.8008 16.4861 35.3377 15.8299 35.6718 14.9708L36.5309 17.548C36.1252 18.7889 35.3854 19.7315 34.3116 20.3758C33.2378 21.0201 31.8537 21.3422 30.1595 21.3422Z" fill="#46509A"/>
<path d="M0 21.0556V1.79834H19.1499V21.0556H13.566V5.1272L14.8188 6.38H4.29531L5.54811 5.1272V21.0556H0Z" fill="#46509A"/>
<path d="M97 21.0003H91L91 2.00026L97 2.00026L97 21.0003Z" fill="#D2354A"/>
<path d="M104.5 11L98.5 11L105 2L111 2L104.5 11Z" fill="#D2354A"/>
<path d="M98.5 11.0012L104.5 11L111.5 21.0013H105.5L98.5 11.0012Z" fill="#D2354A"/>
</svg>
